<svg id="eivPX4I8yo01" xmlns="http://www.w3.org/2000/svg" xmlns:xlink="http://www.w3.org/1999/xlink" width="256" height="256" viewBox="0 0 256 256" shape-rendering="geometricPrecision" text-rendering="geometricPrecision">
<style><![CDATA[
#eivPX4I8yo07_to {animation: eivPX4I8yo07_to__to 4000ms linear infinite normal forwards}@keyframes eivPX4I8yo07_to__to { 0% {transform: translate(128px,168px)} 10% {transform: translate(128px,168px);animation-timing-function: cubic-bezier(0.42,0,0.58,1)} 33.333333% {transform: translate(128px,134px)} 43.333333% {transform: translate(128px,134px);animation-timing-function: cubic-bezier(0.42,0,0.58,1)} 66.666667% {transform: translate(1px,134px)} 83.333333% {transform: translate(128px,168px)} 100% {transform: translate(128px,168px)}} #eivPX4I8yo07_ts {animation: eivPX4I8yo07_ts__ts 4000ms linear infinite normal forwards}@keyframes eivPX4I8yo07_ts__ts { 0% {transform: scale(1,1)} 10% {transform: scale(1,1)} 66.666667% {transform: scale(1,1)} 83.333333% {transform: scale(0.9,0.9);animation-timing-function: cubic-bezier(0.42,0,0.58,1)} 96.666667% {transform: scale(1,1)} 100% {transform: scale(1,1)}} #eivPX4I8yo07 {animation: eivPX4I8yo07_c_o 4000ms linear infinite normal forwards}@keyframes eivPX4I8yo07_c_o { 0% {opacity: 1} 33.333333% {opacity: 1} 43.333333% {opacity: 1} 66.666667% {opacity: 0} 83.333333% {opacity: 0;animation-timing-function: cubic-bezier(0.42,0,0.58,1)} 96.666667% {opacity: 1} 100% {opacity: 1}} #eivPX4I8yo039_to {animation: eivPX4I8yo039_to__to 4000ms linear infinite normal forwards}@keyframes eivPX4I8yo039_to__to { 0% {transform: translate(128px,128px)} 80% {transform: translate(128px,128px);animation-timing-function: cubic-bezier(0.42,0,0.58,1)} 96.666667% {transform: translate(45px,128px)} 100% {transform: translate(45px,128px)}} #eivPX4I8yo039_ts {animation: eivPX4I8yo039_ts__ts 4000ms linear infinite normal forwards}@keyframes eivPX4I8yo039_ts__ts { 0% {transform: scale(0.753225,0.753225)} 53.333333% {transform: scale(0.9,0.9);animation-timing-function: cubic-bezier(0.42,0,0.58,1)} 66.666667% {transform: scale(1,1)} 100% {transform: scale(1,1)}} #eivPX4I8yo039 {animation: eivPX4I8yo039_c_o 4000ms linear infinite normal forwards}@keyframes eivPX4I8yo039_c_o { 0% {opacity: 0} 53.333333% {opacity: 0;animation-timing-function: cubic-bezier(0.42,0,0.58,1)} 66.666667% {opacity: 1} 80% {opacity: 1;animation-timing-function: cubic-bezier(0.42,0,0.58,1)} 96.666667% {opacity: 0} 100% {opacity: 0}} .shadow{-webkit-filter:drop-shadow( 0 0 8px rgba(0,0,0,.7));
  filter: drop-shadow(0 0 8px rgba(0,0,0,.7));}
]]></style>
<path class="st0" fill="#3c3c3b" d="M8.5,0h239c4.7,0,8.5,3.8,8.5,8.5v239c0,4.7-3.8,8.5-8.5,8.5H8.5c-4.7,0-8.5-3.8-8.5-8.5V8.5C0,3.8,3.8,0,8.5,0z"/>
<g><polygon points="223.8,34.5 230.6,27.6 237.2,34.5 239.6,32.1 232.8,25.2 239.6,18.6 237.2,16.2 230.6,23 223.8,16.2 221.4,18.6 228.2,25.2 221.4,32.1" fill="#d2d7dc"/><polygon points="230.5,118.9 228.1,121.3 234.9,128.1 228.1,134.7 230.5,137.1 239.6,128" fill="#d2d7dc"/><polygon points="22.5,137.1 24.8,134.7 18,127.9 24.8,121.3 22.5,118.9 13.3,128" fill="#d2d7dc"/></g><g id="eivPX4I8yo07_to" transform="translate(128,168)"><g id="eivPX4I8yo07_ts" transform="scale(1,1)"><g id="eivPX4I8yo07" class="shadow" transform="translate(-128,-162)"><path class="st2" fill="#FAEEFF" d="M50,36h156c2.7,0,5,2.2,5,5v230c0,2.7-2.2,5-5,5H50c-2.7,0-5-2.2-5-5V41C45,38.2,47.2,36,50,36z"/><g transform="translate(0-6.099998)" opacity="0.4"><polygon points="141.9,185.5 150.2,197.5 153,195.6 144.7,183.6" fill="#d2d7dc"/><polygon points="128.9,166.7 137.2,178.7 140,176.8 131.7,164.8" fill="#d2d7dc"/><polygon points="127.1,157.9 118.8,145.9 116,147.8 124.3,159.9" fill="#d2d7dc"/><polygon points="114.1,139.1 105.8,127.1 103,129 111.3,141" fill="#d2d7dc"/><polygon points="90.1,110.3 98.4,122.3 101.2,120.4 92.9,108.4" fill="#d2d7dc"/><polygon points="88.3,101.6 80,89.6 77.2,91.5 85.5,103.5" fill="#d2d7dc"/><polygon points="64.1,72.8 72.4,84.8 75.2,82.8 66.9,70.8" fill="#d2d7dc"/><polygon points="51.2,54.1 59.5,66.1 62.3,64.2 54,52.1" fill="#d2d7dc"/><polygon points="103.1,195.5 105.9,197.5 114.2,185.4 111.4,183.5" fill="#d2d7dc"/><polygon points="116,176.8 118.8,178.7 127.1,166.7 124.3,164.7" fill="#d2d7dc"/><polygon points="140,147.9 137.2,146 128.9,158 131.7,159.9" fill="#d2d7dc"/><polygon points="141.9,139.3 144.7,141.2 153,129.2 150.2,127.3" fill="#d2d7dc"/><polygon points="154.8,120.5 157.6,122.4 165.9,110.4 163.1,108.5" fill="#d2d7dc"/><polygon points="178.8,91.6 176,89.7 167.7,101.7 170.5,103.6" fill="#d2d7dc"/><polygon points="180.8,82.9 183.6,84.8 191.9,72.8 189.1,70.9" fill="#d2d7dc"/><polygon points="193.7,64.1 196.5,66 204.8,54 202,52.1" fill="#d2d7dc"/><polygon points="154.8,203.8 155,204.2 154.9,204.3 157.1,207.5 157.3,207.5 163.1,215.9 165.9,213.9 157.6,201.9" fill="#d2d7dc"/><polygon points="167.7,222.7 176,234.7 178.8,232.8 170.5,220.7" fill="#d2d7dc"/><polygon points="180.8,241.4 189.1,253.4 191.9,251.5 183.6,239.5" fill="#d2d7dc"/><polygon points="193.7,260.1 202,272.1 204.8,270.2 196.5,258.2" fill="#d2d7dc"/><polygon points="98.4,201.8 90.1,213.8 92.9,215.8 98.6,207.5 98.9,207.5 101.1,204.3 100.9,204.1 101.2,203.7" fill="#d2d7dc"/><polygon points="77.2,232.6 80,234.5 88.3,222.5 85.5,220.6" fill="#d2d7dc"/><polygon points="64.1,251.4 66.9,253.4 75.2,241.4 72.4,239.4" fill="#d2d7dc"/><polygon points="51.2,270.2 54,272.2 62.3,260.1 59.5,258.2" fill="#d2d7dc"/></g></g></g></g><g id="eivPX4I8yo039_to" class="shadow" transform="translate(128,128)"><g id="eivPX4I8yo039_ts" transform="scale(0.9,0.9)"><g id="eivPX4I8yo039" transform="translate(-128,-128)" opacity="0"><rect width="166" height="124" rx="0" ry="0" transform="translate(44.99545 66)"/><g><path d="M130.1,112.1c-10.5-1.3-19.3,7.5-17.9,17.9.9,7.1,6.7,12.9,13.8,13.8c10.5,1.3,19.3-7.5,17.9-17.9-.9-7.1-6.7-12.9-13.8-13.8ZM123,134.4v-12.8c0-.7.8-1.2,1.4-.8l11.2,6.4c.6.4.6,1.3,0,1.6l-11.2,6.4c-.6.4-1.4-.1-1.4-.8Z" fill="#ff1950"/></g></g></g></g></svg>